<?xml version="1.0" encoding="utf-8"?>
<!-- Generator: Adobe Illustrator 22.0.0, SVG Export Plug-In . SVG Version: 6.00 Build 0)  -->
<svg version="1.1" id="Layer_1" xmlns="http://www.w3.org/2000/svg" xmlns:xlink="http://www.w3.org/1999/xlink" x="0px" y="0px"
	 viewBox="0 0 2157.2 2159.3" style="enable-background:new 0 0 2157.2 2159.3;" xml:space="preserve">
<style type="text/css">
	.st0{fill:#FFFFFF;}
</style>
<g>
	<path id="Logo_Shape__1_" class="st0" d="M529.7,1613h36.5c4,0,7.1-2.7,7.6-6.7c0-0.4,0-0.9,0-1.3v-136.3h45
		c59.2,0,97.5-40.1,97.5-98.4V1312c0-62.3-38.7-106-98-106c-58.8,0-95.8,43.6-95.8,106v293c-0.4,4,2.2,7.6,6.2,8
		C528.8,1613,529.3,1613,529.7,1613z M573.4,1421.1v-110.9c0-33.4,16.9-54.8,45-54.8c28.1,0,45.9,21.8,45.9,54.8v61.9
		c0,30.7-17.8,49-47.2,49H573.4L573.4,1421.1z M833.4,1613.4c54.8,0,89.1-37.9,89.1-90.4v-114.9c0-53.9-34.7-92.6-89.1-92.6
		c-50.8,0-84.6,35.6-87.7,85.1c-0.4,4,2.7,7.6,6.7,8c0.4,0,0.4,0,0.9,0h33c3.6,0.9,7.1-1.8,8-5.3c0-0.4,0-0.9,0-1.8
		c1.8-23.6,14.7-39.6,38.7-39.6c25.8,0,41,17.8,41,43.6v31.6h-42.8c-53.4,0-90,36.5-90,84.2C741.2,1575.1,778.2,1613.4,833.4,1613.4
		z M833,1566.7c-26.7,0-42.8-17.8-42.8-45c0-22.3,16-40.1,42.8-40.1h41v41.9C874,1549.3,859.3,1566.7,833,1566.7L833,1566.7z
		 M979.5,1613h33c4,0.4,7.6-2.2,8-6.2c0-0.4,0-0.9,0-1.8v-192.8c0-26.7,14.7-45,40.1-45c25.4,0,40.1,18.3,40.1,45V1605
		c-0.4,4,2.2,7.6,6.2,8c0.4,0,0.9,0,1.8,0h33c4,0.4,7.6-2.2,8-6.2c0-0.4,0-0.9,0-1.8v-191.1c0-54.3-36.1-93.1-89.1-93.1
		s-89.1,38.7-89.1,93.1V1605c-0.4,4,2.2,7.6,6.2,8C978.6,1613,979.1,1613,979.5,1613L979.5,1613z M1318,1565.8h-6.2
		c-28.9,0-44.1-15.6-44.1-51.7v-142.5h44.1c4,0.4,7.1-2.7,7.6-6.2c0-0.4,0-0.9,0-0.9v-29.8c0.4-4-2.7-7.1-6.2-7.6
		c-0.4,0-0.9,0-0.9,0h-44.2v-73.9c0.4-4-2.2-7.6-6.2-8c-0.4,0-0.9,0-1.3,0h-33c-4-0.4-7.6,2.2-8,6.2c0,0.4,0,0.9,0,1.8v73.9h-32.1
		c-4-0.4-7.1,2.7-7.6,6.2c0,0.4,0,0.9,0,0.9v29.8c-0.4,4,2.7,7.1,6.2,7.6c0.4,0,0.9,0,0.9,0h32.1v142.1c0,62.8,33.8,98.4,90,98.4
		h8.5c4,0.4,7.6-2.2,8-6.2c0-0.4,0-0.9,0-1.3v-31.2c0.4-4-2.7-7.1-6.7-7.6C1318.9,1565.8,1318.4,1565.8,1318,1565.8z M1446.2,1613.4
		c51.2,0,87.3-35.6,90-88.6c0.4-4-2.7-7.1-6.2-7.6c-0.4,0-0.9,0-0.9,0h-33.8c-4-0.4-7.6,2.7-8,6.7c0,0.4,0,0.4,0,0.9
		c-1.8,25.4-16.9,42.3-40.5,42.3c-26.3,0-41.9-18.3-41.9-44.5v-29.8h42.3c54.3,0,90.9-36.1,90.9-86.4c0-52.6-37.9-90.9-91.3-90.4
		c-54.8,0-90,37.9-90.9,92.2v112.2C1356.3,1576.5,1392.8,1613.4,1446.2,1613.4z M1405.3,1448.2v-40.5c0-27.6,14.7-45,41.9-45
		c26.3,0,42.3,17.8,42.3,45c0,24-15.6,40.5-41.9,40.5H1405.3z M1593.7,1613h33c4,0.4,7.6-2.2,8-6.2c0-0.4,0-0.9,0-1.8v-390.1
		c0.4-4-2.7-7.1-6.7-7.6c-0.4,0-0.9,0-1.3,0h-33c-4-0.4-7.6,2.2-8,6.2c0,0.4,0,0.9,0,1.3v390.1c-0.4,4,2.2,7.6,6.2,8
		C1592.3,1613,1593.2,1613,1593.7,1613L1593.7,1613z"/>
	<path class="st0" d="M1415.1,104.2H739.9c-117.1,0-212,94.9-212,212.9v312.6c0,9.8,0,18.7,0.9,28.5
		c12.5,250.7,183.5,459.2,414.6,527.3c0-183.5,148.7-332.2,332.2-332.2h139c117.1,0,212.4-94.9,212.4-212.4V317
		C1627.1,199,1532.2,104.2,1415.1,104.2z M800.9,442.6c-4.5-30.3,10.7-59.2,33.8-62.8c23.2-3.6,45.9,19.6,50.3,50.3
		c4.5,30.3-12.5,46.8-35.6,50.3C826.8,484.5,806.3,472.9,800.9,442.6z M884.2,701.4c-25.8,3.6-53.9-36.5-61.9-90.4
		s6.2-100.2,32.1-104.7c25.8-4.5,53.9,36.5,61.9,89.5C924.3,651,910,697.8,884.2,701.4z M941.2,287.6c-0.9-38.3,23.2-71.7,52.1-71.7
		c29.4,0,53.9,32.1,53.9,69.9c0.9,38.3-23.2,56.6-52.1,56.6C965.7,342.4,942.1,325,941.2,287.6z M1008.5,741.4
		c-30.3,0.9-56.6-69.9-60.1-178.1C944.8,455.1,968,386,996.9,385.2c30.3-0.9,56.6,66.4,59.2,174.6
		C1060.6,668,1038.3,740.6,1008.5,741.4z M1200,579.3c-7.1,100.2-37.4,165.7-65.5,163c-29.4-2.7-45.9-70.8-39.2-171
		c8-100.2,37.4-160.3,65.5-158.5C1190.2,415.5,1207.5,479.1,1200,579.3z M1224.5,312.6c-2.7,38.3-28.5,53.9-57.5,51.2
		c-28.9-2.7-52.1-22.3-48.5-60.1c2.7-38.3,29.4-69,58.3-66.4C1205.8,240,1227.1,274.3,1224.5,312.6z M1328.2,594.9
		c-9.8,64.6-39.2,113.6-65.5,109.1c-26.7-3.6-41-59.2-31.2-123.4c9.8-63.7,39.2-113.6,65.5-109.1
		C1322.9,475.6,1337.1,531.2,1328.2,594.9z M1349.6,408.3c-4.5,30.3-25.8,41.9-48.5,38.3c-23.2-3.6-41-20.5-35.6-50.3
		c4.5-30.3,27.6-53.9,50.3-50.3C1339.8,348.6,1354.9,377.2,1349.6,408.3z"/>
</g>
<g>
	<path class="st0" d="M114.2,1758.4h2.1c3.8,0,10.2,3.1,19.1,9.4c3.3,3.1,5,5.8,5,8c0.2,0,0.5,1.9,0.7,5.7c0,7.4-2.9,22.1-8.8,44.2
		c-15.9,69.1-23.8,120.4-23.8,154v5.3c0,18.9,2.7,33.2,8,42.7h0.4c6.2,0,14.9-4.4,26.1-13.1c9.8-8.6,18.3-17.3,25.5-26.1
		c13.5-16.9,25.4-33.7,35.5-50.6c18.3-30.8,33.1-60.6,44.4-89.3c6.6-16.1,12.8-34.7,18.5-55.6c2.3-9.1,3.6-14,4-14.9h0.3
		c4,0.4,9.7,3.5,17,9.1c0.7,1,1,1.6,1,1.7c-18.9,93.5-28.3,157.3-28.3,191.2c0,9.2,0.6,13.7,1.8,13.7h0.7c1.9,0,6.4-4.7,13.7-14
		c6.2-8.6,11.7-16.6,16.6-24c0.2-0.2,0.5-0.4,0.7-0.4c1.6,0,4.8,1.4,9.6,4.1v0.2c-9,13.6-17,24.9-24.2,33.6c-7.2,8-13.1,12-17.7,12
		h-1.7c-2.6-0.2-6.3-2.5-11.3-6.8c-4.9-5.5-7.3-16.1-7.3-32c0-15.8,4.1-50.2,12.2-103.2v-0.2h-0.2c-16.3,36.1-31.3,65.2-45.1,87.1
		c-9,14.5-19.8,29.6-32.3,45.1c-22.4,26-40.1,39.1-53.2,39.1h-1.4c-3.7,0-6.6-0.9-8.9-2.6c-3.4-1.6-7.1-4.3-11-8.3
		c-8.1-8.8-12.1-25.9-12.1-51.3c0-40.9,10.2-102.7,30.7-185.4c1.3-6.5,2-10.9,2-13.2c-8.4,5.8-17.8,15.4-28.1,28.8
		c-9.7,13.2-17.9,26.7-24.8,40.4c-9.6,20.5-14.4,37.8-14.4,52v1c0,8.8,2.3,16.6,6.9,23.5v0.4l-0.4,0.1h-0.4
		c-3.6-0.3-8.9-3.1-16.1-8.3c-3.3-2.9-5.9-8.7-7.8-17.4c-0.4-2.6-0.7-5.1-0.7-7.4v-3.3c0-18.8,8.6-42.9,25.7-72.1
		c5.7-9.3,13.2-19.6,22.5-30.8c9.8-10.6,16.6-16.8,20.6-18.5C109,1759.7,111.9,1758.4,114.2,1758.4z"/>
	<path class="st0" d="M303.8,1899c3.4,0.3,8.9,3,16.7,8.1c3.1,2.2,4.6,3.8,4.6,4.7c-5.2,23.5-7.9,38.4-8.1,44.7v0.2h0.2
		c3.3-7.7,7.6-15.5,12.8-23.5c3.6-6.3,8.5-13,14.6-20.2c7.9-8.4,14-12.6,18.4-12.6h0.4c4.4,0.7,9.9,4.8,16.5,12.2
		c3.5,6.6,5.2,10.9,5.2,12.8c1.3,4,2.5,10.8,3.5,20.5c0.7,9.4,1.5,15.4,2.1,18c4.2-0.8,9.7-3.7,16.3-8.7h0.3c1.6,0,5.5,1.6,11.6,4.9
		v0.2c-9.5,8.2-17.7,12.2-24.7,12.2c-5.8,0-12.6-4-20.3-11.9c-3.3-4.7-5.3-10.9-6.1-18.4c-1.3-14.5-2.7-24.2-4.2-29.1
		c-0.1,0-0.3-0.5-0.5-1.6c-5.5,4.6-9.6,9-12.4,13.2c-7.2,10.1-16.3,26.5-27.1,49.3c-2.2,3.9-4.1,6.9-5.8,9.1
		c-0.9,1.1-2.1,1.6-3.6,1.6c-3.9,0-9.8-2.1-17.7-6.4c-1.9-1.4-2.9-3.2-2.9-5.2c-0.3-0.3-0.6-3-0.7-8.1c0-9.6,3.1-30.1,9.3-61.5
		C302.9,1900.5,303.4,1899,303.8,1899z"/>
	<path class="st0" d="M417.9,1894.4c5.7,1.2,11.9,4.5,18.6,9.8c0.2,0,0.7,0.4,1.2,1.3v0.4c-4.8,17-8.6,32.2-11.3,45.7
		c-1.6,10.2-2.2,17.6-2,22.4l0.3,4.8h0.2c5.7-1.9,14-7.8,24.9-17.8c1.8-1.9,4.4-4.7,7.8-8.4h0.9c1.4,0,3.9,2.1,7.3,6.4v0.2
		c-17.2,19.1-30.3,28.7-39.3,28.7c-5.9,0-12.5-3.8-19.8-11.3c-1.5-2.7-2.4-6.7-2.6-12.1c-0.2-9.4,2-24.5,6.7-45.3
		c3.2-12.7,5.5-20.9,6.8-24.7L417.9,1894.4z M433,1848.7c4.5,0.7,10.6,3.8,18.2,9.3c0.5,0.6,0.9,1.2,1.3,1.7
		c0.1,0.3-3.1,10.1-9.6,29.6c-0.5,0.6-1.2,0.9-2.1,1.1c-3.7,0-8.8-3-15.2-9c-1.4-1.7-2.2-3-2.4-3.8c4.2-11.6,7.4-21.2,9.5-28.9H433z
		"/>
	<path class="st0" d="M520.5,1872.6c2.2,0,5.6,1.5,10.2,4.5v0.4c-2.5,10.2-5.5,20-9.1,29.3c-7.5,18.9-16.5,36-26.8,51.1
		c-11.2,15.5-20.2,23.3-27.1,23.3c-3.4,0-6.9-3.2-10.7-9.6c-1.6-4-2.3-6.9-2.3-8.6v-2.2c0-3.5,2.3-17.2,6.9-41.1
		c1-6.2,1.5-11.8,1.5-16.6c0-3.2-0.5-6.2-1.5-8.8l0.4-0.2c3.1,0.6,7.8,3.1,14,7.5c4.2,2.9,6.3,5.6,6.3,8.1c0.3,0.6,0.5,2.1,0.5,4.4
		v1.7c0,6-2.1,18.6-6.4,37.6c-0.6,3.1-0.8,5.7-0.8,7.9v0.7c6.7-6.7,11.2-12.3,13.7-16.6c7.2-10.3,14.3-24.3,21.1-42.1
		c3-8.3,6.1-18.4,9.3-30.5H520.5z"/>
	<path class="st0" d="M553.9,1906.7c4.8,0,10.8,2.3,18.1,6.9c1.3,1.1,2,2.5,2,4c0,7.5-12.2,20.4-36.7,38.6c0,5.4,1,10.1,3,14.1
		c2.7,2.2,5.7,3.3,9,3.3h0.5c8.2,0,15.9-4.8,23.2-14.5c1.9-2.3,3.1-3.6,3.4-3.7h0.6c1.6,0,4,1.5,7.2,4.6c0.4,0.6,0.7,1.2,0.7,1.6
		c-8.9,13.1-19.6,19.6-32,19.6c-6.7,0-13.9-2.1-21.8-6.4c-5.4-3.9-9.1-9.3-11.2-16.2c-0.5-3-0.7-6.3-0.7-9.9
		c0-16.9,7.3-29.7,21.8-38.4C545.9,1907.9,550.2,1906.7,553.9,1906.7z M541.9,1940.8h0.2c10-8.5,15.8-14.6,17.6-18.4l0.5-1.1h-0.2
		C551.6,1925.8,545.6,1932.3,541.9,1940.8z"/>
	<path class="st0" d="M603.8,1883h0.4c3.1,0,7.3,1.6,12.7,4.9c0.9,1.6,1.4,3.1,1.4,4.3c0,1.9-0.7,5.3-2,10.2l17.3,9.2
		c6.8,3.7,10.2,8.6,10.2,14.7c0,4.9-3,14.8-9,29.7c-2.7,8.8-4.1,16.3-4.1,22.5v1.4c5.7-1.8,13.4-7.1,23.1-15.9
		c5.1-5.5,7.7-8.3,7.9-8.3c1.6,0,3.1,0.5,4.5,1.5c1.4,1,2.6,2.5,3.6,4.6c-15.8,15.5-26.3,23.9-31.6,25.3c-2.2,1.1-4.5,1.6-6.7,1.6
		c-5.2,0-10.8-3.3-16.8-9.8c-2.3-3.2-3.5-7.2-3.5-11.9c0-8.5,3.2-20.6,9.5-36.3c2.4-6.8,3.6-11.7,3.6-14.9c0-2.4-0.3-3.6-1-3.6
		l-8.9-4.6c-0.2,0.1-1.4,2.7-3.6,7.9c-7.7,15.6-16,30.5-25,44.7c-1.1,1.4-1.7,2.1-1.8,2.1h-0.8c-2.1-0.5-4.7-2.4-7.9-5.7v-0.7
		c7.5-11.6,15.6-25.7,24.2-42.2c2.9-6.2,4.8-10.5,5.6-13.1c-4.5-4-6.8-7.9-6.8-11.8C598.8,1885,600.6,1883,603.8,1883z"/>
	<path class="st0" d="M698.4,1882.6h2.1c3.5,0,7.2,1.6,11.2,4.9c1,1.7,1.5,3.7,1.5,6.1v0.6c0,6.4-2,11.5-5.9,15.4
		c-1.1,0.4-2.1,0.7-2.9,0.7c-1.9,0-5.7-2.5-11.6-7.5v-0.4c3.6,0,5.9-1.6,6.9-4.7c0.5-1.8,0.7-3.1,0.7-3.7
		c-9.8,6.4-14.7,12.9-14.7,19.5v2.1c0,5.2,3.3,12.7,10,22.5c11-3.4,20-5,27-5h1.1c1.9,0,5.4,1.4,10.5,4.3v0.4h-0.1
		c-8.8,0.2-19.5,2.5-32.2,6.8c-0.8,0.3-1.3,0.5-1.4,0.5c4.6,6.8,6.9,12.2,6.9,16.4c0,8.9-10.1,15.4-30.2,19.4
		c-1.6,0.3-3.1,0.4-4.7,0.4h-1c-4.7,0-11.5-3.3-20.6-10c-1.4-1.2-2.1-2.6-2.1-3.9c1.4-3.5,5.9-7.8,13.6-13.1c7.6-5,15-9,22.3-12
		c0.2,0,0.4-0.1,0.4-0.4c-0.7-2.1-4.7-7.9-11.8-17.6c-2.7-4.8-4.1-9.2-4.1-13.2c0-10.2,7.1-19.1,21.4-26.8
		C693.8,1883.2,696.3,1882.6,698.4,1882.6z M667.5,1968h0.2c11.4-2.9,18.7-5.5,22-7.8c1.2-1.2,1.8-2.6,1.8-4.1v-0.4
		c0-1.9-0.5-3.7-1.6-5.5c-5,2.5-10.8,6.7-17.4,12.7C669.1,1966,667.5,1967.7,667.5,1968z"/>
	<path class="st0" d="M785.5,1906.4c3.8,0.4,8,2.1,12.7,5c3.9,2.7,5.9,5.8,5.9,9.3c0,4.2-2.2,14.6-6.5,31.1c-0.9,4.4-1.4,8.3-1.4,12
		c0,0.7,0.1,2.1,0.2,4.3h0.5c1.7,0,6.4-3.9,13.9-11.8l0.5-0.6c2.2,0.2,5.6,1.9,10.2,5.2c-10.1,10.9-15.7,16.4-16.9,16.4
		c-2,1.5-4,2.2-6.1,2.2h-1.2c-4.5,0-10.5-3.8-17.9-11.5c-1.8-2.5-2.7-5.3-2.7-8.3v-0.4c0-5.1,2-14,6.1-26.7v-0.2h-0.2
		c-4.1,7.4-8.6,14.5-13.7,21.6c-2.2,3.9-7.2,9.7-14.8,17.4c-7.4,6.5-13.5,9.7-18.4,9.7c-3.9-1.8-7.9-4.2-12.2-7.3
		c-4.7-3.8-7.1-8.4-7.1-13.9v-1c0-8.7,5.1-18.9,15.3-30.7c6.7-7,11.8-11.4,15.2-13.1c5.7-3.4,10.6-5,14.5-5h1
		c4.2,0,9.3,1.7,15.5,5.2C781.4,1909.3,784,1906.4,785.5,1906.4z M734.6,1970.6v0.7c4.7-1.4,11.7-8.1,20.8-20.2
		c7-10.2,12.9-19.5,17.6-27.9v-0.6c-4.2,0.8-10.4,4.9-18.8,12.1c-7.5,7.8-12.5,14.4-15,19.8C736.1,1960.6,734.6,1965.9,734.6,1970.6
		z"/>
	<path class="st0" d="M848.5,1791.5h0.7c4.2,0.8,9.6,3.7,16.3,8.8c1.1,0.9,1.6,1.7,1.6,2.4c-9.6,33.3-18.3,66.5-26.2,99.5
		c-7.4,33.4-11,57.4-11,71.9v4.4c0,7.1,1.1,13,3.4,17.8c0,0.2-0.1,0.4-0.4,0.4h-0.2c-3.4-0.2-9.1-3.2-17-9c-3.3-3.4-5-10.8-5-22.1
		c0-29.5,12.1-86.1,36.2-169.8C847.7,1792.9,848.2,1791.5,848.5,1791.5z"/>
	<path class="st0" d="M1046.6,1758.7h2.5c6.5,0,14.4,3.1,23.5,9.3c0.6,1,0.9,1.9,0.9,2.7c0,5.7-7.7,15-23.2,28.1
		c-7.7,6.3-15.9,12.1-24.7,17.5c-11.7,6.7-23.8,12.6-36.2,17.8c-6.5,2.4-9.7,3.8-9.7,4.1c-8.1,11.2-15.2,22.7-21.2,34.5
		c-15.5,30.7-23.2,59.7-23.2,87c0,18.3,4,35.5,12.1,51.9c2.2,5,5.4,9.6,9.7,13.6c2.9,2.2,6.6,3.3,11,3.3h1.9
		c18.2,0,39.4-10.7,63.7-32.2c12.7-12.6,20.3-20.9,22.8-24.9c2.9-3.4,6.7-8.4,11.3-15c0.4-0.4,1.7-0.2,4,0.8c3.4,1.6,5,2.8,4.9,3.5
		c-0.1,0.9-3.1,5.3-9.1,13.2c-4.7,6.2-11.3,13.6-19.7,22.4c-12.6,12-21.5,19.3-26.5,22.1c-17,11.4-32,17.1-44.9,17.1h-1.9
		c-7.7,0-13.4-1-17.1-3.1c-15.5-8.8-26.4-21.7-32.8-38.7c-5.5-15-8.2-29.7-8.2-44.2c0-30.4,9.6-62.8,28.7-97.1
		c1.2-1.6,2.4-3.6,3.6-6.1h-0.2c-5.7,1.4-11.2,2.1-16.4,2.1H931c-11.8,0-20.7-3.6-26.9-10.7c-2.9-4-4.3-6.8-4.3-8.4
		c0.1-0.2,0.2-0.4,0.4-0.4c2.5,0,7.2,2.2,14,6.7c2.3,1.5,4,3.3,5,5.3c1.4,1.6,4.3,2.3,8.6,2.3c5.8,0,14.5-1.6,26-4.8
		c4.4-7,9.9-14.8,16.4-23.3c5-6.7,13.1-15.5,24-26.4c10.5-9.5,18.1-15.6,22.8-18.2C1028.9,1762.6,1038.8,1758.7,1046.6,1758.7z
		 M989.4,1825v0.2c13-5.6,26.8-13.1,41.4-22.6c6.5-4.2,13.3-9.6,20.6-16.1c7.5-6.9,11.1-12.3,10.9-16.4h-0.1
		c-8.6,0.9-18.9,5.6-31,14c-4.9,3.3-12.3,9.6-22.2,19C1000.1,1812.2,993.5,1819.6,989.4,1825z"/>
	<path class="st0" d="M1105,1902.3h0.6c3.2,0,8.3,2.3,15.3,7c14.1,0.6,16.1,3.8,6,9.8c1.5,4.8,2.2,9.4,2.2,13.8
		c0,8.7-2.2,17.4-6.7,25.9c-1.2,2.6-4.2,6.1-9,10.6c-7.8,6.5-15.7,9.8-23.8,9.8c-5.6,0-12.1-4.2-19.6-12.5
		c-1.9-2.7-2.9-6.4-2.9-10.8c0-10,4.3-21.3,12.9-34c5-6,8.5-9.3,10.6-9.8c5,0.9,10.9,4.3,17.9,10l0.7,1v0.4
		c-3.8,2.7-7.4,6.4-10.9,11.3c-7.7,12.1-11.6,22.5-11.6,31.3v1.4c0,0.6,0.1,1.7,0.2,3.1c3.7,0,9.4-2.7,17-8
		c9.8-8.7,14.7-18.3,14.7-28.7v-2.4c0-3.2-0.8-7.1-2.3-11.5c-7.6-2.9-13.5-6.4-17.8-10.6c-0.6-0.7-0.8-1.2-0.8-1.4
		C1097.6,1906.4,1100.1,1904.5,1105,1902.3z"/>
	<path class="st0" d="M1197.7,1888.9h1c8.8,2.7,14.7,6.8,17.8,12.1c0.7,1.1,1.4,2.6,2,4.5c0,1.1,0.1,3,0.2,5.9
		c0,9.8-1.2,22.8-3.6,39c7-12.7,13.8-23.7,20.6-33.1c6.3-8,10.5-12,12.7-12h0.9c4.5,1.9,8.9,5,13.4,9.3c5.4,7.4,8.1,17.1,8.1,29
		l-0.7,21.5v2.5c3.2-2.1,8.3-6.4,15.5-12.9h0.4c1.4,0,4.7,1.7,10,5v0.1c-10.6,10.3-17,16-19.3,17c-3.4,2.3-6.4,3.5-9,3.5
		c-5.2,0-10.7-3.1-16.4-9.2c-1.6-2.6-2.3-4.7-2.3-6.3c0.2-10.2,0.4-16.5,0.4-19c0-8.8-0.5-17.4-1.6-25.7c-6.8,7.4-12,14.3-15.6,20.7
		c-9.1,14.7-16.8,29-23.1,42.9c-0.7,1.8-1.5,2.7-2.3,2.7c-3,0-7.5-1.7-13.6-5.2c-3.8-2.7-5.7-4.7-5.7-6.1
		c7.9-41.5,11.8-65.8,11.8-72.8v-0.2h-0.2c-8.9,11.7-16.3,23.5-22.1,35.4c-7,13.1-14.7,29.8-23.3,50.1c-0.2,0-0.4,0.1-0.7,0.4h-2.1
		c-5.4-0.7-10.7-2.9-16.1-6.4c-1.4-1.3-2.1-4.3-2.1-9v-3.4c0-9.2,3-29.5,9-60.8c0.4-2.5,0.7-3.7,1-3.7c4,0.6,9.7,3.6,17.2,8.8
		c1.6,1.4,2.3,2.4,2.3,3c-2.2,11-4.6,25.4-7.4,43.2v0.1h0.2c3.4-9.8,8.6-21.5,15.6-34.9c5.2-9.8,10.8-18.8,16.8-27
		C1191.8,1892.1,1195.3,1889.1,1197.7,1888.9z"/>
	<path class="st0" d="M1349.5,1888.9h1c8.8,2.7,14.7,6.8,17.8,12.1c0.7,1.1,1.4,2.6,2,4.5c0,1.1,0.1,3,0.2,5.9
		c0,9.8-1.2,22.8-3.6,39c7-12.7,13.8-23.7,20.6-33.1c6.3-8,10.5-12,12.7-12h0.9c4.5,1.9,8.9,5,13.4,9.3c5.4,7.4,8.1,17.1,8.1,29
		l-0.7,21.5v2.5c3.2-2.1,8.3-6.4,15.5-12.9h0.4c1.4,0,4.7,1.7,10,5v0.1c-10.6,10.3-17,16-19.3,17c-3.4,2.3-6.4,3.5-9,3.5
		c-5.2,0-10.7-3.1-16.4-9.2c-1.6-2.6-2.3-4.7-2.3-6.3c0.2-10.2,0.4-16.5,0.4-19c0-8.8-0.5-17.4-1.6-25.7c-6.8,7.4-12,14.3-15.6,20.7
		c-9.1,14.7-16.8,29-23.1,42.9c-0.7,1.8-1.5,2.7-2.3,2.7c-3,0-7.5-1.7-13.6-5.2c-3.8-2.7-5.7-4.7-5.7-6.1
		c7.9-41.5,11.8-65.8,11.8-72.8v-0.2h-0.2c-8.9,11.7-16.3,23.5-22.1,35.4c-7,13.1-14.7,29.8-23.3,50.1c-0.2,0-0.4,0.1-0.7,0.4h-2.1
		c-5.4-0.7-10.7-2.9-16.1-6.4c-1.4-1.3-2.1-4.3-2.1-9v-3.4c0-9.2,3-29.5,9-60.8c0.4-2.5,0.7-3.7,1-3.7c4,0.6,9.7,3.6,17.2,8.8
		c1.6,1.4,2.3,2.4,2.3,3c-2.2,11-4.6,25.4-7.4,43.2v0.1h0.2c3.4-9.8,8.6-21.5,15.6-34.9c5.2-9.8,10.8-18.8,16.8-27
		C1343.7,1892.1,1347.2,1889.1,1349.5,1888.9z"/>
	<path class="st0" d="M1504.8,1897.9c3.9,0,8.5,2.8,13.7,8.4c1.2,1.5,1.8,3.4,1.8,5.7c0,1.7-2,10.1-6.1,25
		c-3.1,11.8-4.7,20.8-4.7,26.8v0.5c0,0.9,0.1,2.2,0.2,3.9c2.9-1.8,8.1-6.1,15.6-12.8h0.2c1.7,0,5.1,1.4,10.4,4.3v0.2
		c-11.5,10.8-18,16.4-19.5,16.7c-3.1,2.3-6.2,3.5-9.3,3.5c-3.9,0-8.6-3.1-14.2-9.3c-1.7-3.2-2.6-6.8-2.6-10.7v-1.8
		c0-5.9,1.5-14.1,4.4-24.9v-0.2h-0.1c-4.2,7.9-9.6,16.4-16.2,25.6c-11.2,15-18.9,22.5-23.4,22.5c-8-2.9-13.4-7.3-16.2-13.2
		c-1.3-3.3-2-7.1-2-11.5v-2.3c0-11.6,3.2-28.9,9.5-51.9l0.4-0.2h0.3c4.3,0.5,10.2,3.7,17.8,9.7c0.6,0.7,0.8,1.2,0.8,1.4
		c-6.2,22.6-9.3,39.6-9.3,50.9v1.9c5.7-5.4,10.3-10.5,13.7-15.4c9.4-13.3,18.3-27.9,26.5-44c2.4-5.9,4.8-8.8,7.1-8.8H1504.8z"/>
	<path class="st0" d="M1535.4,1899c3.4,0.3,8.9,3,16.7,8.1c3.1,2.2,4.6,3.8,4.6,4.7c-5.2,23.5-7.9,38.4-8.1,44.7v0.2h0.2
		c3.3-7.7,7.6-15.5,12.8-23.5c3.6-6.3,8.5-13,14.6-20.2c7.9-8.4,14-12.6,18.4-12.6h0.4c4.4,0.7,9.9,4.8,16.5,12.2
		c3.5,6.6,5.2,10.9,5.2,12.8c1.3,4,2.5,10.8,3.5,20.5c0.7,9.4,1.5,15.4,2.1,18c4.2-0.8,9.7-3.7,16.3-8.7h0.3c1.6,0,5.5,1.6,11.6,4.9
		v0.2c-9.5,8.2-17.7,12.2-24.7,12.2c-5.8,0-12.6-4-20.3-11.9c-3.3-4.7-5.3-10.9-6.1-18.4c-1.3-14.5-2.7-24.2-4.2-29.1
		c-0.1,0-0.3-0.5-0.5-1.6c-5.5,4.6-9.6,9-12.4,13.2c-7.2,10.1-16.3,26.5-27.1,49.3c-2.2,3.9-4.1,6.9-5.8,9.1
		c-0.9,1.1-2.1,1.6-3.6,1.6c-3.9,0-9.8-2.1-17.7-6.4c-1.9-1.4-2.9-3.2-2.9-5.2c-0.3-0.3-0.6-3-0.7-8.1c0-9.6,3.1-30.1,9.3-61.5
		C1534.5,1900.5,1535,1899,1535.4,1899z"/>
	<path class="st0" d="M1649.5,1894.4c5.7,1.2,11.9,4.5,18.6,9.8c0.2,0,0.7,0.4,1.2,1.3v0.4c-4.8,17-8.6,32.2-11.3,45.7
		c-1.6,10.2-2.2,17.6-2,22.4l0.3,4.8h0.2c5.7-1.9,14-7.8,24.9-17.8c1.8-1.9,4.4-4.7,7.8-8.4h0.9c1.4,0,3.9,2.1,7.3,6.4v0.2
		c-17.2,19.1-30.3,28.7-39.3,28.7c-5.9,0-12.5-3.8-19.8-11.3c-1.5-2.7-2.4-6.7-2.6-12.1c-0.2-9.4,2-24.5,6.7-45.3
		c3.2-12.7,5.5-20.9,6.8-24.7L1649.5,1894.4z M1664.6,1848.7c4.5,0.7,10.6,3.8,18.2,9.3c0.5,0.6,0.9,1.2,1.3,1.7
		c0.1,0.3-3.1,10.1-9.6,29.6c-0.5,0.6-1.2,0.9-2.1,1.1c-3.7,0-8.8-3-15.2-9c-1.4-1.7-2.2-3-2.4-3.8c4.2-11.6,7.4-21.2,9.5-28.9
		H1664.6z"/>
	<path class="st0" d="M1717.7,1913c7.6,0,14.3,3.3,20,10c0.7,1,1,2.1,1,3.2v0.6c0,2.2-1.5,4.9-4.4,8h-0.5c-1.6-0.1-4.1-2.7-7.6-7.9
		c-3.4,0.9-7.6,3.7-12.5,8.2c-6.3,7.5-9.4,14.9-9.4,22.1v2.4c0,4.5,1.5,9.1,4.4,13.6c2.9,0.6,5.2,0.8,6.8,0.8
		c10.3,0,21.5-5.3,33.7-16c1.4-1.2,2.6-1.9,3.4-2.2c1.7,0,3.9,2.1,6.6,6.3c0.5,0.9,0.7,1.5,0.7,1.8v0.2c-8,7.2-16.3,12.2-24.7,15
		c-4.9,1.4-9.1,2.1-12.4,2.1c-5.2,0-11.3-1.6-18.1-4.7c-3.6-2-7.7-5.3-12.4-10c-4.4-5-6.5-11.1-6.5-18.3c0-8.7,3.1-16.7,9.2-24
		C1702,1916.7,1709.6,1913,1717.7,1913z"/>
	<path class="st0" d="M1821.4,1906.4c3.8,0.4,8,2.1,12.7,5c3.9,2.7,5.9,5.8,5.9,9.3c0,4.2-2.2,14.6-6.5,31.1
		c-0.9,4.4-1.4,8.3-1.4,12c0,0.7,0.1,2.1,0.2,4.3h0.5c1.7,0,6.4-3.9,13.9-11.8l0.5-0.6c2.2,0.2,5.6,1.9,10.2,5.2
		c-10.1,10.9-15.7,16.4-16.9,16.4c-2,1.5-4,2.2-6.1,2.2h-1.2c-4.5,0-10.5-3.8-17.9-11.5c-1.8-2.5-2.7-5.3-2.7-8.3v-0.4
		c0-5.1,2-14,6.1-26.7v-0.2h-0.2c-4.1,7.4-8.6,14.5-13.7,21.6c-2.2,3.9-7.2,9.7-14.8,17.4c-7.4,6.5-13.5,9.7-18.4,9.7
		c-3.9-1.8-7.9-4.2-12.2-7.3c-4.7-3.8-7.1-8.4-7.1-13.9v-1c0-8.7,5.1-18.9,15.3-30.7c6.7-7,11.8-11.4,15.2-13.1
		c5.7-3.4,10.6-5,14.5-5h1c4.2,0,9.3,1.7,15.5,5.2C1817.3,1909.3,1819.9,1906.4,1821.4,1906.4z M1770.5,1970.6v0.7
		c4.7-1.4,11.7-8.1,20.8-20.2c7-10.2,12.9-19.5,17.6-27.9v-0.6c-4.2,0.8-10.4,4.9-18.8,12.1c-7.5,7.8-12.5,14.4-15,19.8
		C1772,1960.6,1770.5,1965.9,1770.5,1970.6z"/>
	<path class="st0" d="M1884.2,1792.5c5,0.9,10.9,4,17.5,9.3c0.9,0.4,1.5,1.2,2,2.3l-10.3,37.8h16.1c5.9,1.5,12,5,18.3,10.4l0.6,0.8
		v0.4c-4.9,19.7-7.6,30.2-8.2,31.6c-0.6,0.4-1.3,0.7-2.1,0.7h-0.3c-3.9,0-9.1-2.6-15.8-7.7c-1.4-1.7-2.2-3.1-2.3-4
		c3.2-13.1,4.8-19.8,4.8-20h-14.3c-16,60.4-23.8,102.9-23.5,127.7c0,6.9,1,12.5,3.1,16.9c0,0.2-0.1,0.4-0.4,0.4h-0.4
		c-4.5-0.7-10.6-4-18.1-9.8c-2.9-3.2-4.4-9.8-4.4-19.6c-0.4-22.3,6.4-60.8,20.4-115.5h-66.3c-5-0.7-11.3-4.1-18.9-10.2
		c-0.6-0.9-0.9-1.5-0.9-1.8l0.4-0.2h88.8c0.2,0,1.7-5.3,4.2-15.9c5.7-20.2,8.9-31.4,9.6-33.6H1884.2z M1893.5,1892.9
		c6.5,1.8,12.8,5.3,18.9,10.6l0.7,1c-7.8,32.2-11.7,55-11.7,68.3l0.2,6.4c3.1-1,7.5-3.5,13.1-7.5c3.7-2.2,10.1-7.9,19.3-17.2
		c0.5-0.6,1.1-1.2,1.8-2.1h0.7c1.6,0,4,2.2,7.5,6.7v0.2c-14,13.9-22.4,21.5-25.3,22.9c-6,4.2-11.3,6.4-16,6.4
		c-5.4,0-11.8-3.7-19.3-11.2c-1.8-3.2-2.7-7.5-2.7-12.9c0-14.3,4-38,11.9-71.2L1893.5,1892.9z"/>
	<path class="st0" d="M1971.1,1902.3h0.6c3.2,0,8.3,2.3,15.3,7c14.1,0.6,16.1,3.8,6,9.8c1.5,4.8,2.2,9.4,2.2,13.8
		c0,8.7-2.2,17.4-6.7,25.9c-1.2,2.6-4.2,6.1-9,10.6c-7.8,6.5-15.7,9.8-23.8,9.8c-5.6,0-12.1-4.2-19.6-12.5
		c-1.9-2.7-2.9-6.4-2.9-10.8c0-10,4.3-21.3,12.9-34c5-6,8.5-9.3,10.6-9.8c5,0.9,10.9,4.3,17.9,10l0.7,1v0.4
		c-3.8,2.7-7.4,6.4-10.9,11.3c-7.7,12.1-11.6,22.5-11.6,31.3v1.4c0,0.6,0.1,1.7,0.2,3.1c3.7,0,9.4-2.7,17-8
		c9.8-8.7,14.7-18.3,14.7-28.7v-2.4c0-3.2-0.8-7.1-2.3-11.5c-7.6-2.9-13.5-6.4-17.8-10.6c-0.6-0.7-0.8-1.2-0.8-1.4
		C1963.6,1906.4,1966.1,1904.5,1971.1,1902.3z"/>
	<path class="st0" d="M2009.7,1899c3.4,0.3,8.9,3,16.7,8.1c3.1,2.2,4.6,3.8,4.6,4.7c-5.2,23.5-7.9,38.4-8.1,44.7v0.2h0.2
		c3.3-7.7,7.6-15.5,12.8-23.5c3.6-6.3,8.5-13,14.6-20.2c7.9-8.4,14-12.6,18.4-12.6h0.4c4.4,0.7,9.9,4.8,16.5,12.2
		c3.5,6.6,5.2,10.9,5.2,12.8c1.3,4,2.5,10.8,3.5,20.5c0.7,9.4,1.5,15.4,2.1,18c4.2-0.8,9.7-3.7,16.3-8.7h0.3c1.6,0,5.5,1.6,11.6,4.9
		v0.2c-9.5,8.2-17.7,12.2-24.7,12.2c-5.8,0-12.6-4-20.3-11.9c-3.3-4.7-5.3-10.9-6.1-18.4c-1.3-14.5-2.7-24.2-4.2-29.1
		c-0.1,0-0.3-0.5-0.5-1.6c-5.5,4.6-9.6,9-12.4,13.2c-7.2,10.1-16.3,26.5-27.1,49.3c-2.2,3.9-4.1,6.9-5.8,9.1
		c-0.9,1.1-2.1,1.6-3.6,1.6c-3.9,0-9.8-2.1-17.7-6.4c-1.9-1.4-2.9-3.2-2.9-5.2c-0.3-0.3-0.6-3-0.7-8.1c0-9.6,3.1-30.1,9.3-61.5
		C2008.8,1900.5,2009.3,1899,2009.7,1899z"/>
</g>
</svg>
